<svg width="29" height="18" viewBox="0 0 29 18" fill="none" xmlns="http://www.w3.org/2000/svg">
<g clip-path="url(#clip0_178503_112087)">
<path fill-rule="evenodd" clip-rule="evenodd" d="M11.159 1.13949C10.0645 0.37983 8.75586 0 7.2331 0C5.71035 0 4.40172 0.37983 3.30724 1.13949C2.21276 1.88332 1.38793 2.91203 0.832759 4.22561C0.277586 5.53919 0 7.04269 0 8.73609C0 10.4295 0.277586 11.933 0.832759 13.2466C1.38793 14.5602 2.21276 15.5968 3.30724 16.3564C4.40172 17.1003 5.71035 17.4722 7.2331 17.4722C8.75586 17.4722 10.0645 17.1003 11.159 16.3564C12.2535 15.5968 13.0783 14.5602 13.6335 13.2466C14.1886 11.933 14.4662 10.4295 14.4662 8.73609C14.4662 7.04269 14.1886 5.53919 13.6335 4.22561C13.0783 2.91203 12.2535 1.88332 11.159 1.13949ZM9.29416 4.06512C8.76241 3.50741 8.0754 3.22856 7.2331 3.22856C6.1069 3.22856 5.25035 3.72708 4.66345 4.72414C4.09241 5.72119 3.8069 7.05851 3.8069 8.73609C3.8069 9.78919 3.91942 10.7083 4.14446 11.4932L9.29416 4.06512ZM5.15689 13.4052C5.69779 13.9641 6.38986 14.2436 7.2331 14.2436C8.35931 14.2436 9.20793 13.7451 9.77897 12.7481C10.3659 11.751 10.6593 10.4137 10.6593 8.73609C10.6593 7.67973 10.543 6.75833 10.3103 5.97181L5.15689 13.4052Z" fill="white"/>
<path d="M18.9848 10.5409L14.5117 17.093H18.7945L20.8883 13.3896C21.0469 13.1364 21.1421 12.8041 21.1738 12.3926C21.1897 12.2343 21.2214 12.1156 21.269 12.0365C21.3165 11.9415 21.4117 11.8941 21.5545 11.8941C21.7765 11.8941 21.9034 12.0365 21.9352 12.3214V12.3926C21.9669 12.8041 22.0621 13.1364 22.2207 13.3896L24.3145 17.093H28.5972L24.1241 10.5409L28.2165 4.55859H23.9338L22.2207 7.66845C22.0303 8.0008 21.9352 8.33316 21.9352 8.66551C21.9352 8.80794 21.9034 8.92664 21.84 9.0216C21.7924 9.11656 21.6972 9.16403 21.5545 9.16403C21.4117 9.16403 21.3086 9.11656 21.2452 9.0216C21.1976 8.92664 21.1738 8.80794 21.1738 8.66551C21.1738 8.33316 21.0786 8.0008 20.8883 7.66845L19.1752 4.55859H14.8924L18.9848 10.5409Z" fill="white"/>
</g>
<defs>
<clipPath id="clip0_178503_112087">
<rect width="28.6681" height="17.496" fill="white"/>
</clipPath>
</defs>
</svg>
