<svg width="113" height="24" viewBox="0 0 113 24" fill="none" xmlns="http://www.w3.org/2000/svg">
<path d="M35.3062 12.7679V12.4833C35.3062 11.7813 35.0596 11.2311 34.5853 10.8517C34.1109 10.4533 33.5038 10.2636 32.745 10.2636C32.1568 10.2636 31.7015 10.3584 31.36 10.5671C31.0375 10.7568 30.7339 11.0414 30.4304 11.4398C30.3355 11.5537 30.2406 11.6296 30.1458 11.6865C30.0509 11.7244 29.8991 11.7434 29.7284 11.7434H29.0644C28.9126 11.7434 28.7608 11.6865 28.628 11.5726C28.5142 11.4588 28.4573 11.326 28.4762 11.1553C28.5142 10.7189 28.7418 10.3015 29.1213 9.88412C29.5197 9.44776 30.0319 9.10627 30.677 8.82169C31.3221 8.55608 32.0051 8.4043 32.745 8.4043C34.111 8.4043 35.2113 8.78374 36.0461 9.52365C36.8998 10.2825 37.3172 11.326 37.3172 12.673V19.2753C37.3172 19.4271 37.2603 19.5789 37.1465 19.6927C37.0327 19.8065 36.8809 19.8634 36.7291 19.8634H35.9133C35.7615 19.8634 35.6097 19.8065 35.4959 19.6927C35.3821 19.5789 35.3252 19.4461 35.3252 19.2753V18.3836C35.0975 18.8959 34.5853 19.3133 33.8264 19.6168C33.0675 19.9204 32.3086 20.0721 31.5497 20.0721C30.8098 20.0721 30.1458 19.9393 29.5576 19.6737C28.9695 19.4081 28.5142 19.0287 28.1917 18.5733C27.8881 18.118 27.7363 17.5868 27.7363 17.0176C27.7363 15.9362 28.1537 15.1014 28.9695 14.4943C29.7853 13.8683 30.8857 13.4509 32.2517 13.2422L35.3062 12.7679ZM35.3062 14.5133L32.707 14.9307C31.7584 15.0825 31.0185 15.3101 30.4873 15.6516C29.9561 15.9742 29.6905 16.3726 29.6905 16.8659C29.6905 17.2263 29.8612 17.5488 30.2027 17.8334C30.5442 18.118 31.0564 18.2698 31.7394 18.2698C32.8019 18.2698 33.6556 17.9662 34.3007 17.3781C34.9647 16.79 35.2872 16.0121 35.2872 15.0635V14.5133H35.3062Z" fill="white"/>
<path d="M42.5155 19.3144C42.5155 19.4662 42.4586 19.618 42.3448 19.7318C42.2309 19.8456 42.0791 19.9026 41.9274 19.9026H41.1116C40.9598 19.9026 40.808 19.8456 40.6942 19.7318C40.5804 19.618 40.5234 19.4852 40.5234 19.3144V5.12329C40.5234 4.97152 40.5804 4.81974 40.6942 4.7059C40.808 4.59207 40.9598 4.53516 41.1116 4.53516H41.9274C42.0791 4.53516 42.2309 4.59207 42.3448 4.7059C42.4586 4.81974 42.5155 4.95254 42.5155 5.12329V19.3144Z" fill="white"/>
<path d="M50.428 18.2533C51.8888 18.2533 52.8754 17.6842 53.3876 16.5648C53.4825 16.3561 53.5963 16.2043 53.6912 16.1095C53.786 16.0146 53.9378 15.9767 54.1086 15.9767H54.7726C54.9244 15.9767 55.0761 16.0336 55.19 16.1474C55.3038 16.2423 55.3607 16.3751 55.3607 16.5079C55.3607 17.0012 55.171 17.5324 54.7726 18.0826C54.3742 18.6517 53.805 19.126 53.0651 19.5055C52.3252 19.9039 51.4335 20.0936 50.428 20.0936C49.3845 20.0936 48.4928 19.8849 47.734 19.4486C46.9751 19.0122 46.3869 18.4241 45.9695 17.6842C45.5522 16.9253 45.3245 16.0715 45.2865 15.1229C45.2676 14.9522 45.2676 14.6107 45.2676 14.1364C45.2676 13.7949 45.2676 13.5482 45.2865 13.3965C45.4194 11.9166 45.9316 10.7214 46.8043 9.81074C47.677 8.88111 48.8912 8.42578 50.428 8.42578C51.4335 8.42578 52.3062 8.6155 53.0461 9.01392C53.786 9.39336 54.3552 9.84869 54.7347 10.4179C55.1331 10.968 55.3418 11.4803 55.3797 11.9736C55.3987 12.1253 55.3418 12.2771 55.209 12.3909C55.0951 12.5048 54.9433 12.5617 54.7916 12.5617H54.1275C53.9568 12.5617 53.805 12.5238 53.7102 12.4289C53.6153 12.334 53.5015 12.1823 53.4066 11.9736C52.8944 10.8542 51.9078 10.285 50.447 10.285C49.6501 10.285 48.9292 10.5507 48.3411 11.0819C47.7339 11.6131 47.3925 12.4289 47.3166 13.5103C47.2976 13.6621 47.2976 13.9277 47.2976 14.2882C47.2976 14.6107 47.2976 14.8573 47.3166 15.0281C47.4114 16.1095 47.7719 16.9253 48.3411 17.4565C48.9292 17.9877 49.6312 18.2533 50.428 18.2533Z" fill="white"/>
<path d="M68.1487 19.3144C68.1487 19.4662 68.0918 19.618 67.9779 19.7318C67.8641 19.8456 67.7123 19.9026 67.5605 19.9026H66.7447C66.593 19.9026 66.4412 19.8456 66.3274 19.7318C66.2135 19.618 66.1566 19.4852 66.1566 19.3144V13.6038C66.1566 12.5224 65.891 11.7066 65.3408 11.1374C64.7906 10.5683 64.0507 10.3027 63.0831 10.3027C62.1345 10.3027 61.3756 10.5873 60.8255 11.1374C60.2753 11.7066 60.0096 12.5224 60.0096 13.6038V19.3144C60.0096 19.4662 59.9527 19.618 59.8389 19.7318C59.7251 19.8456 59.5733 19.9026 59.4215 19.9026H58.6057C58.4539 19.9026 58.3022 19.8456 58.1883 19.7318C58.0745 19.618 58.0176 19.4852 58.0176 19.3144V5.12329C58.0176 4.97152 58.0745 4.81974 58.1883 4.7059C58.3022 4.59207 58.4539 4.53516 58.6057 4.53516H59.4215C59.5733 4.53516 59.7251 4.59207 59.8389 4.7059C59.9527 4.81974 60.0096 4.95254 60.0096 5.12329V9.90426C60.3322 9.48687 60.7685 9.14537 61.3187 8.86079C61.8879 8.57621 62.5899 8.42444 63.4057 8.42444C64.3353 8.42444 65.1511 8.61416 65.872 9.01257C66.593 9.41099 67.1432 9.96118 67.5416 10.7011C67.959 11.422 68.1487 12.2758 68.1487 13.2813V19.3144Z" fill="white"/>
<path d="M75.8501 8.42578C77.4248 8.42578 78.658 8.91905 79.5687 9.9056C80.4793 10.8922 80.9347 12.2202 80.9347 13.9087V14.4969C80.9347 14.6486 80.8777 14.8004 80.7639 14.9142C80.6501 15.0281 80.4983 15.085 80.3465 15.085H72.7956V15.2178C72.8336 16.1664 73.1182 16.9253 73.6684 17.4755C74.2375 18.0067 74.9774 18.2723 75.8691 18.2723C76.609 18.2723 77.1592 18.1774 77.5576 17.9877C77.975 17.798 78.3355 17.5324 78.658 17.1909C78.7718 17.0771 78.8857 17.0012 78.9616 16.9443C79.0564 16.9063 79.1892 16.8873 79.36 16.8873H80.024C80.1948 16.8873 80.3465 16.9443 80.4604 17.0581C80.5742 17.1719 80.6311 17.3047 80.6121 17.4755C80.5552 17.8739 80.3276 18.2723 79.9481 18.6897C79.5876 19.0881 79.0564 19.4486 78.3355 19.7332C77.6525 19.9988 76.8177 20.1505 75.8501 20.1505C74.9205 20.1505 74.0857 19.9418 73.3458 19.5245C72.6059 19.0881 72.0368 18.5 71.5814 17.76C71.164 17.0012 70.8984 16.1664 70.8036 15.2368C70.7656 14.8004 70.7656 14.4779 70.7656 14.2502C70.7656 14.0225 70.7846 13.6811 70.8036 13.2637C70.8984 12.372 71.1451 11.5562 71.5814 10.8352C72.0178 10.1143 72.6059 9.54513 73.3079 9.12775C74.0478 8.63447 74.9015 8.42578 75.8501 8.42578ZM78.9426 13.2637V13.2067C78.9426 12.334 78.658 11.6321 78.0889 11.1008C77.5387 10.5696 76.7798 10.304 75.8501 10.304C74.9964 10.304 74.2755 10.5696 73.6684 11.1008C73.0802 11.6321 72.7767 12.334 72.7767 13.2067V13.2637H78.9426Z" fill="white"/>
<path d="M85.5643 9.9056C85.9248 9.45027 86.3043 9.10877 86.7596 8.84316C87.1959 8.57755 87.7841 8.42578 88.524 8.42578C90.2315 8.42578 91.4457 9.05186 92.1287 10.304C92.5461 9.69691 93.0393 9.24158 93.5706 8.91906C94.1208 8.59653 94.8227 8.42578 95.6954 8.42578C97.1373 8.42578 98.1998 8.84316 98.8827 9.69691C99.5847 10.5507 99.9452 11.7459 99.9452 13.3016V19.2968C99.9452 19.4486 99.8883 19.6003 99.7744 19.7142C99.6606 19.828 99.5088 19.8849 99.3571 19.8849H98.5413C98.3895 19.8849 98.2377 19.828 98.1239 19.7142C98.01 19.6003 97.9531 19.4675 97.9531 19.2968V13.5293C97.9531 11.3665 97.0804 10.285 95.3539 10.285C94.5571 10.285 93.931 10.5507 93.4567 11.0629C92.9824 11.5751 92.7548 12.353 92.7548 13.3775V19.2968C92.7548 19.4486 92.6978 19.6003 92.584 19.7142C92.4702 19.828 92.3184 19.8849 92.1666 19.8849H91.3508C91.199 19.8849 91.0473 19.828 90.9334 19.7142C90.8196 19.6003 90.7627 19.4675 90.7627 19.2968V13.5293C90.7627 11.3665 89.89 10.285 88.1635 10.285C87.3667 10.285 86.7406 10.5507 86.2663 11.0629C85.792 11.5751 85.5643 12.353 85.5643 13.3775V19.2968C85.5643 19.4486 85.5074 19.6003 85.3936 19.7142C85.2798 19.828 85.128 19.8849 84.9762 19.8849H84.1604C84.0086 19.8849 83.8569 19.828 83.743 19.7142C83.6292 19.6003 83.5723 19.4675 83.5723 19.2968V9.22261C83.5723 9.07083 83.6292 8.91906 83.743 8.80522C83.8569 8.69139 84.0086 8.63448 84.1604 8.63448H84.9762C85.128 8.63448 85.2798 8.69139 85.3936 8.80522C85.5074 8.91906 85.5643 9.05186 85.5643 9.22261V9.9056Z" fill="white"/>
<path d="M106.09 23.4885C105.957 23.83 105.748 24.0008 105.445 24.0008H104.553C104.401 24.0008 104.288 23.9439 104.174 23.849C104.079 23.7541 104.022 23.6213 104.022 23.4885C104.022 23.4316 104.022 23.3747 104.041 23.3367L106.147 18.8214L101.802 9.31637C101.783 9.27842 101.783 9.22151 101.783 9.16459C101.783 9.01282 101.84 8.89898 101.935 8.80412C102.03 8.70926 102.163 8.65234 102.314 8.65234H103.206C103.491 8.65234 103.718 8.82309 103.851 9.16459L107.228 16.5258L110.662 9.16459C110.795 8.82309 111.004 8.65234 111.307 8.65234H112.199C112.351 8.65234 112.464 8.70926 112.578 8.80412C112.673 8.89898 112.73 9.03179 112.73 9.16459C112.73 9.22151 112.73 9.27842 112.711 9.31637L106.09 23.4885Z" fill="white"/>
<path d="M19.4079 12.7303L12.0277 0.208694C11.9898 0.151778 11.9329 0.0948611 11.8759 0.0569169C11.819 0.0189727 11.7431 0 11.6673 0C11.5914 0 11.5155 0.0189727 11.4586 0.0569169C11.4016 0.0948611 11.3447 0.151778 11.3068 0.208694L9.10602 3.96517C9.03013 4.079 8.99219 4.23078 8.99219 4.36358C8.99219 4.49639 9.03013 4.64816 9.10602 4.76199L13.9249 12.939C14.0008 13.0528 14.0957 13.1666 14.2285 13.2425C14.3613 13.3184 14.4941 13.3564 14.6459 13.3564H19.0474C19.1233 13.3564 19.1992 13.3374 19.2561 13.2994C19.313 13.2615 19.3699 13.2046 19.4079 13.1477C19.4458 13.0907 19.4648 13.0149 19.4648 12.939C19.4648 12.8631 19.4458 12.8062 19.4079 12.7303Z" fill="white"/>
<path d="M0.0758887 19.2752L7.45603 6.75361C7.49398 6.69669 7.55089 6.63978 7.60781 6.60184C7.66473 6.56389 7.74062 6.54492 7.8165 6.54492C7.89239 6.54492 7.96828 6.56389 8.0252 6.60184C8.08211 6.63978 8.13903 6.69669 8.17697 6.75361L10.3777 10.5101C10.4536 10.6239 10.4916 10.7757 10.4916 10.9085C10.4916 11.0413 10.4536 11.1931 10.3777 11.3069L5.55882 19.4839C5.48293 19.5977 5.38808 19.7116 5.25527 19.7874C5.12247 19.8633 4.98966 19.9013 4.83789 19.9013H0.417387C0.341499 19.9013 0.265609 19.8823 0.208693 19.8444C0.151776 19.8064 0.0948611 19.7495 0.0569169 19.6926C0.0189727 19.6357 0 19.5598 0 19.4839C0.0189721 19.408 0.0379445 19.3511 0.0758887 19.2752Z" fill="white"/>
<path d="M8.15818 19.882H22.9185C22.9944 19.882 23.0702 19.863 23.1272 19.8251C23.1841 19.7871 23.241 19.7302 23.2789 19.6733C23.3169 19.6164 23.3359 19.5405 23.3359 19.4646C23.3359 19.3887 23.3169 19.3318 23.2789 19.2559L21.0782 15.4994C21.0023 15.3856 20.9074 15.2717 20.7746 15.1959C20.6418 15.12 20.509 15.082 20.3572 15.082H10.7384C10.5866 15.082 10.4538 15.12 10.321 15.1959C10.1882 15.2717 10.0933 15.3666 10.0174 15.4994L7.81668 19.2559C7.77874 19.3128 7.75977 19.3887 7.75977 19.4646C7.75977 19.5405 7.77874 19.5974 7.81668 19.6733C7.85463 19.7302 7.91154 19.7871 7.96846 19.8251C8.02538 19.863 8.10126 19.882 8.15818 19.882Z" fill="white"/>
</svg>
