<svg width="87" height="22" viewBox="0 0 87 22" fill="none" xmlns="http://www.w3.org/2000/svg">
<path d="M11.3792 12.6723L10.3127 15.5927C10.2812 15.6737 10.2812 15.7637 10.3127 15.8447L12.1441 20.8711L14.2636 19.6471L11.7212 12.6723C11.6627 12.5103 11.4377 12.5103 11.3792 12.6723Z" fill="white"/>
<path d="M13.5141 7.75822C13.4556 7.59622 13.2306 7.59622 13.1721 7.75822L12.1057 10.6786C12.0742 10.7596 12.0742 10.8496 12.1057 10.9306L15.1071 19.161L17.2265 17.937L13.5141 7.75822Z" fill="white"/>
<path d="M9.74678 1.36347C9.80078 1.36347 9.85028 1.37697 9.89978 1.40397L17.9816 6.07036C18.0761 6.12436 18.1346 6.22336 18.1346 6.33136V15.6641C18.1346 15.7721 18.0761 15.8711 17.9816 15.9251L9.89978 20.596C9.85478 20.623 9.80078 20.6365 9.74678 20.6365C9.69278 20.6365 9.64328 20.623 9.59378 20.596L1.51647 15.9296C1.42197 15.8756 1.36347 15.7766 1.36347 15.6686V6.33136C1.36347 6.22336 1.42197 6.12436 1.51647 6.07036L9.59828 1.40397C9.64328 1.37697 9.69728 1.36347 9.74678 1.36347ZM9.74678 0C9.45879 0 9.17079 0.0764983 8.9143 0.224995L0.832481 4.89139C0.319493 5.18838 0 5.73737 0 6.33136V15.6641C0 16.2581 0.319493 16.8116 0.832481 17.1086L8.9143 21.775C9.17079 21.9235 9.45879 22 9.74678 22C10.0348 22 10.3228 21.9235 10.5793 21.775L18.6611 17.1086C19.1786 16.8116 19.4936 16.2626 19.4936 15.6641V6.33136C19.4936 5.73737 19.1741 5.18388 18.6611 4.88689L10.5838 0.224995C10.3228 0.0764983 10.0348 0 9.74678 0Z" fill="white"/>
<path d="M4.4043 19.1707L5.14678 17.1367L6.64075 18.3787L5.24578 19.6567L4.4043 19.1707Z" fill="white"/>
<path d="M9.06845 5.66602H7.021C6.868 5.66602 6.72851 5.76051 6.67901 5.90451L2.28711 17.9462L4.40656 19.1702L9.24395 5.90901C9.28445 5.79201 9.19895 5.66602 9.06845 5.66602Z" fill="white"/>
<path d="M12.6529 5.66602H10.6055C10.4525 5.66602 10.313 5.76051 10.2635 5.90451L5.24609 19.6562L7.36555 20.8802L12.8239 5.91351C12.8689 5.79201 12.7789 5.66602 12.6529 5.66602Z" fill="white"/>
<path d="M28.2189 8.17188C28.4214 8.17188 28.5969 8.21238 28.7364 8.29787C28.8759 8.38337 29.0154 8.54537 29.1504 8.78836L31.8233 13.6393C31.8503 13.6932 31.8548 13.7382 31.8413 13.7742C31.8278 13.8102 31.7873 13.8282 31.7243 13.8282H30.6983C30.6083 13.8282 30.5453 13.7922 30.5138 13.7247L29.9424 12.6853H26.1489L25.591 13.7247C25.555 13.7967 25.492 13.8282 25.4065 13.8282H24.358C24.286 13.8282 24.2455 13.8102 24.232 13.7742C24.2185 13.7382 24.223 13.6932 24.25 13.6393L26.9004 8.78836C27.0354 8.54537 27.1659 8.38337 27.2964 8.29787C27.4269 8.21238 27.5754 8.17188 27.7464 8.17188H28.2189ZM26.6484 11.7403H29.4294L28.1469 9.37335C28.1244 9.33735 28.0974 9.31485 28.0569 9.31485H28.0074C27.9714 9.31485 27.9399 9.33285 27.9174 9.37335L26.6484 11.7403Z" fill="white"/>
<path d="M37.6961 8.17188C38.3171 8.17188 38.7581 8.31137 39.0281 8.59037C39.2981 8.86936 39.4331 9.28335 39.4331 9.83234V10.2913C39.4331 10.7548 39.3386 11.1193 39.1496 11.3893C38.9606 11.6593 38.6546 11.8303 38.2271 11.9068L39.6086 13.6168C39.6356 13.6438 39.6446 13.6842 39.6311 13.7382C39.6221 13.7922 39.5771 13.8192 39.5006 13.8192H38.4611C38.3891 13.8192 38.3441 13.8102 38.3171 13.7967C38.2901 13.7787 38.2631 13.7517 38.2361 13.7157L36.9581 12.0373H34.3482V13.6438C34.3482 13.7607 34.2897 13.8192 34.1727 13.8192H33.2997C33.1737 13.8192 33.1152 13.7607 33.1152 13.6438V8.41487C33.1152 8.25287 33.1962 8.17188 33.3582 8.17188H37.6961ZM34.3527 11.0563H37.4441C37.7186 11.0563 37.9121 10.9978 38.0246 10.8808C38.1371 10.7638 38.1956 10.5838 38.1956 10.3408V10.0033C38.1956 9.76034 38.1371 9.58034 38.0246 9.46335C37.9121 9.34635 37.7186 9.28785 37.4441 9.28785H34.4562C34.3842 9.28785 34.3527 9.31935 34.3527 9.38685V11.0563Z" fill="white"/>
<path d="M46.1869 8.17188C46.7404 8.17188 47.1364 8.28437 47.3704 8.50487C47.6044 8.72536 47.7214 9.05836 47.7214 9.50385V9.89084C47.7214 10.3408 47.5504 10.6828 47.2039 10.9168C47.5729 11.1328 47.7619 11.4793 47.7619 11.9563V12.4243C47.7619 12.6403 47.7394 12.8338 47.6899 13.0048C47.6404 13.1758 47.5639 13.3243 47.4514 13.4458C47.3389 13.5673 47.1949 13.6618 47.0104 13.7247C46.8259 13.7877 46.6009 13.8237 46.3309 13.8237H41.534C41.372 13.8237 41.291 13.7427 41.291 13.5808V8.41487C41.291 8.25287 41.372 8.17188 41.534 8.17188H46.1869ZM42.5285 10.5208H45.8404C46.1104 10.5208 46.2904 10.4803 46.3894 10.3993C46.4884 10.3183 46.5334 10.2013 46.5334 10.0438V9.76934C46.5334 9.60284 46.4884 9.48135 46.3939 9.40035C46.2994 9.32385 46.1464 9.28335 45.9394 9.28335H42.6365C42.5645 9.28335 42.533 9.31935 42.533 9.38685V10.5208H42.5285ZM42.5285 11.4028V12.6043C42.5285 12.6763 42.5645 12.7078 42.632 12.7078H45.9439C46.1599 12.7078 46.3129 12.6673 46.4029 12.5908C46.4929 12.5143 46.5424 12.3883 46.5424 12.2173V11.9113C46.5424 11.7448 46.4929 11.6188 46.3939 11.5333C46.2949 11.4478 46.1104 11.4028 45.8404 11.4028H42.5285Z" fill="white"/>
<path d="M50.7723 8.17188C50.8893 8.17188 50.9478 8.23037 50.9478 8.34737V13.6438C50.9478 13.7607 50.8893 13.8192 50.7723 13.8192H49.8993C49.7733 13.8192 49.7148 13.7607 49.7148 13.6438V8.35187C49.7148 8.23487 49.7778 8.17638 49.8993 8.17638L50.7723 8.17188Z" fill="white"/>
<path d="M59.2324 8.17188C59.3584 8.17188 59.4169 8.23037 59.4169 8.34737V9.13935C59.4169 9.26535 59.3539 9.32385 59.2324 9.32385H56.699V13.6438C56.699 13.7607 56.6405 13.8192 56.5235 13.8192H55.6415C55.5245 13.8192 55.466 13.7607 55.466 13.6438V9.32385H52.9325C52.8065 9.32385 52.748 9.26085 52.748 9.13935V8.34737C52.748 8.23037 52.811 8.17188 52.9325 8.17188H59.2324Z" fill="white"/>
<path d="M65.618 8.17188C66.239 8.17188 66.68 8.31137 66.95 8.59037C67.22 8.86936 67.355 9.28335 67.355 9.83234V10.2913C67.355 10.7548 67.2605 11.1193 67.0715 11.3893C66.8825 11.6593 66.5765 11.8303 66.149 11.9068L67.5305 13.6168C67.5575 13.6438 67.5665 13.6842 67.553 13.7382C67.544 13.7922 67.499 13.8192 67.4225 13.8192H66.383C66.311 13.8192 66.266 13.8102 66.239 13.7967C66.212 13.7787 66.185 13.7517 66.158 13.7157L64.88 12.0373H62.2701V13.6438C62.2701 13.7607 62.2116 13.8192 62.0946 13.8192H61.2216C61.0956 13.8192 61.0371 13.7607 61.0371 13.6438V8.41487C61.0371 8.25287 61.1181 8.17188 61.2801 8.17188H65.618ZM62.2791 11.0563H65.3705C65.645 11.0563 65.8385 10.9978 65.951 10.8808C66.0635 10.7638 66.122 10.5838 66.122 10.3408V10.0033C66.122 9.76034 66.0635 9.58034 65.951 9.46335C65.8385 9.34635 65.645 9.28785 65.3705 9.28785H62.3826C62.3106 9.28785 62.2791 9.31935 62.2791 9.38685V11.0563Z" fill="white"/>
<path d="M70.1578 8.17188C70.2748 8.17188 70.3333 8.23037 70.3333 8.34737V11.5693C70.3333 11.7853 70.3513 11.9653 70.3873 12.1048C70.4233 12.2488 70.4818 12.3613 70.5628 12.4423C70.6438 12.5278 70.7518 12.5863 70.8913 12.6178C71.0308 12.6538 71.2018 12.6718 71.4133 12.6718H73.6498C73.8613 12.6718 74.0323 12.6538 74.1718 12.6178C74.3113 12.5818 74.4193 12.5233 74.5002 12.4423C74.5812 12.3568 74.6397 12.2443 74.6712 12.1048C74.7027 11.9608 74.7207 11.7853 74.7207 11.5693V8.34737C74.7207 8.23037 74.7792 8.17188 74.8962 8.17188H75.7782C75.8952 8.17188 75.9537 8.23037 75.9537 8.34737V11.6908C75.9537 12.0778 75.9132 12.4063 75.8322 12.6808C75.7512 12.9508 75.6207 13.1713 75.4407 13.3423C75.2607 13.5133 75.0267 13.6348 74.7387 13.7113C74.4508 13.7877 74.1043 13.8237 73.6948 13.8237H71.3683C70.9588 13.8237 70.6123 13.7877 70.3288 13.7113C70.0454 13.6348 69.8114 13.5133 69.6314 13.3423C69.4514 13.1713 69.3209 12.9508 69.2354 12.6808C69.1499 12.4108 69.1094 12.0778 69.1094 11.6908V8.34737C69.1094 8.23037 69.1724 8.17188 69.2939 8.17188H70.1578Z" fill="white"/>
<path d="M79.4226 8.17188C79.5396 8.17188 79.6431 8.18087 79.7286 8.19437C79.8141 8.21237 79.8906 8.23938 79.9536 8.28887C80.0166 8.33387 80.0751 8.39687 80.1291 8.47337C80.1786 8.54987 80.2326 8.65337 80.2866 8.78386L81.9651 12.6583C81.9876 12.7078 82.0236 12.7303 82.0776 12.7303H82.1766C82.2306 12.7303 82.2666 12.7078 82.2891 12.6583L83.9675 8.78386C84.0215 8.65337 84.0755 8.54987 84.125 8.47337C84.1745 8.39687 84.233 8.33387 84.3005 8.28887C84.3635 8.24388 84.44 8.21237 84.521 8.19437C84.6065 8.17637 84.7055 8.17188 84.8225 8.17188H85.6865C85.9655 8.17188 86.1545 8.23487 86.2535 8.36087C86.3525 8.48687 86.3975 8.70286 86.3975 9.00886V13.6438C86.3975 13.7607 86.3345 13.8192 86.213 13.8192H85.3895C85.2725 13.8192 85.214 13.7607 85.214 13.6438V9.42735C85.214 9.37335 85.1915 9.34635 85.151 9.34635H85.079C85.025 9.34635 84.989 9.36885 84.9755 9.40935L83.3465 13.0273C83.2835 13.1713 83.216 13.2973 83.1485 13.3963C83.081 13.4953 83.009 13.5763 82.9325 13.6438C82.856 13.7068 82.766 13.7562 82.667 13.7832C82.568 13.8102 82.4511 13.8237 82.3161 13.8237H81.9291C81.7941 13.8237 81.6771 13.8102 81.5781 13.7832C81.4791 13.7562 81.3891 13.7113 81.3126 13.6438C81.2361 13.5808 81.1596 13.4953 81.0966 13.3963C81.0291 13.2973 80.9616 13.1758 80.8986 13.0273L79.2696 9.40935C79.2516 9.36435 79.2201 9.34635 79.1661 9.34635H79.0941C79.0491 9.34635 79.0311 9.37335 79.0311 9.42735V13.6438C79.0311 13.7607 78.9726 13.8192 78.8556 13.8192H78.0322C77.9062 13.8192 77.8477 13.7607 77.8477 13.6438V9.00886C77.8477 8.70286 77.8972 8.48687 77.9917 8.36087C78.0906 8.23487 78.2796 8.17188 78.5631 8.17188H79.4226Z" fill="white"/>
</svg>
