<svg width="25" height="22" viewBox="0 0 25 22" fill="none" xmlns="http://www.w3.org/2000/svg">
<g clip-path="url(#clip0_178503_112237)">
<mask id="mask0_178503_112237" style="mask-type:luminance" maskUnits="userSpaceOnUse" x="0" y="0" width="25" height="22">
<path d="M25 0H0V22H25V0Z" fill="white"/>
</mask>
<g mask="url(#mask0_178503_112237)">
<path d="M25.0002 17.8749V1.375C25.0002 0.615657 24.3784 0 23.6115 0H1.39075C0.623785 0 0.00195312 0.615657 0.00195312 1.375V20.6251C0.00195312 21.3844 0.623785 22 1.39075 22H23.6115C24.3784 22 25.0002 21.3844 25.0002 20.6251V17.8749Z" fill="white"/>
<path d="M13.1924 2.0625H4.8596C3.32569 2.0625 2.08203 3.2938 2.08203 4.8125V13.0625C2.08203 14.5812 3.32569 15.8125 4.8596 15.8125H13.1924C14.7263 15.8125 15.9699 14.5812 15.9699 13.0625V4.8125C15.9699 3.2938 14.7263 2.0625 13.1924 2.0625Z" fill="black"/>
<path d="M13.1944 10.3125H12.5V11H13.1944V10.3125Z" fill="white"/>
<path d="M20.1375 10.3125H19.4432V13.0625H18.748V13.75H19.4432V15.8125H20.1375V13.75H20.8295V13.0625H20.1375V10.3125Z" fill="black"/>
<path d="M22.9154 10.3125H22.2211V11.6875H21.5273V12.375H22.2211V15.8125H22.9154V12.375H23.6091V11.6875H22.9154V10.3125Z" fill="black"/>
<path d="M22.9144 2.0625H19.4414V2.74999H22.9144V2.0625Z" fill="black"/>
<path d="M22.916 4.8125H19.4434V5.49999H22.916V4.8125Z" fill="black"/>
<path d="M23.6093 3.4375H18.748V4.12501H23.6093V3.4375Z" fill="black"/>
<path d="M12.4991 11H11.8047V11.6875H12.4991V11Z" fill="white"/>
<path d="M6.24908 11H5.55469V11.6875H6.24735V12.375H11.8042V11.6875H6.24908V11Z" fill="white"/>
<path d="M5.55572 10.3125H4.86133V11H5.55572V10.3125Z" fill="white"/>
<path d="M7.63879 6.1875H6.25V8.9375H7.63879V6.1875Z" fill="white"/>
<path d="M11.8048 6.1875H10.416V8.9375H11.8048V6.1875Z" fill="white"/>
<path d="M13.1924 2.0625H4.8596C3.32569 2.0625 2.08203 3.2938 2.08203 4.8125V13.0625C2.08203 14.5812 3.32569 15.8125 4.8596 15.8125H13.1924C14.7263 15.8125 15.9699 14.5812 15.9699 13.0625V4.8125C15.9699 3.2938 14.7263 2.0625 13.1924 2.0625ZM15.2755 13.0625C15.2755 14.1996 14.3409 15.125 13.1924 15.125H4.8596C3.71108 15.125 2.77642 14.1996 2.77642 13.0625V4.8125C2.77642 3.67536 3.71108 2.74999 4.8596 2.74999H13.1924C14.3409 2.74999 15.2755 3.67536 15.2755 4.8125V13.0625Z" fill="black"/>
<path d="M4.8596 18.5625H2.08203V19.25H4.8596V18.5625Z" fill="black"/>
<path d="M24.9982 17.8749V1.375C24.9982 0.615657 24.3764 0 23.6095 0H1.38879C0.621832 0 0 0.615657 0 1.375V20.6251C0 21.3844 0.621832 22 1.38879 22H23.6095C24.3764 22 24.9982 21.3844 24.9982 20.6251V17.8749ZM0.694396 1.375C0.694396 0.995843 1.00583 0.6875 1.38879 0.6875H17.3575V17.1875H0.694396V1.375ZM24.3039 19.25C24.3039 19.6291 23.9925 19.9375 23.6095 19.9375H1.38879C1.00583 19.9375 0.694396 19.6291 0.694396 19.25V17.8749H24.3039V19.25ZM24.3039 17.1875H18.0532V0.6875H23.6095C23.9925 0.6875 24.3039 0.995843 24.3039 1.375V17.1875Z" fill="black"/>
</g>
</g>
<defs>
<clipPath id="clip0_178503_112237">
<rect width="25" height="22" fill="white"/>
</clipPath>
</defs>
</svg>
