<svg width="75" height="19" viewBox="0 0 75 19" fill="none" xmlns="http://www.w3.org/2000/svg">
<g clip-path="url(#clip0_178503_112037)">
<path d="M25.9481 18.7769C24.4846 18.7769 23.0734 18.2419 22.2418 16.8306H21.759V18.3754H18.4316V0H21.759V6.6849H22.2418C23.096 5.22142 24.6929 4.65738 26.1338 4.65738C29.7287 4.65738 32.1577 7.53212 32.1577 11.5802C32.1577 15.6283 29.4913 18.77 25.9481 18.77V18.7775V18.7769ZM25.228 15.7989C27.2781 15.7989 28.741 14.1201 28.741 11.7212C28.741 9.3223 27.2479 7.64354 25.228 7.64354C23.208 7.64354 21.7665 9.24048 21.7665 11.7212C21.7665 14.2019 23.23 15.7989 25.228 15.7989ZM38.3076 18.7769C35.7526 18.7769 33.6729 17.2322 33.6729 14.6992C33.6729 12.1663 35.9604 10.755 38.7312 10.4655L42.6458 10.0645V9.32172C42.6458 8.17798 41.7098 7.37544 40.0612 7.37544C38.4126 7.37544 37.5805 8.06598 37.291 9.10586H34.0971C34.4162 6.57291 36.5186 4.6568 40.0612 4.6568C43.6039 4.6568 45.7359 6.30597 45.7359 9.52947V16.0287C45.7359 16.8533 45.8177 17.997 45.8693 18.3162V18.3684H42.6754C42.6458 17.9152 42.6458 17.4922 42.6458 17.039H42.163C41.3385 18.3684 39.8976 18.7694 38.3007 18.7694L38.3082 18.7769H38.3076ZM39.214 16.2741C41.3976 16.2741 42.6528 14.625 42.6528 12.9468V12.2783L39.7189 12.6276C37.9066 12.8429 37.0298 13.3704 37.0298 14.5437C37.0298 15.7171 37.9362 16.2741 39.2134 16.2741H39.214ZM53.7351 18.7769C50.3776 18.7769 47.9787 17.0981 47.6073 14.4613H50.883C51.2544 15.6347 52.48 16.1401 53.7577 16.1401C55.0355 16.1401 56.1271 15.583 56.1271 14.5954C56.1271 13.6077 55.1168 13.3402 53.7282 13.1023L52.3169 12.8644C49.6505 12.4112 48.0013 11.2895 48.0013 8.89811C48.0013 6.50675 50.2888 4.66434 53.4606 4.66434C56.6325 4.66434 58.6008 6.1052 59.1579 8.60855H55.964C55.5926 7.6209 54.605 7.22689 53.4833 7.22689C52.3616 7.22689 51.2474 7.81356 51.2474 8.63815C51.2474 9.46273 51.938 9.75984 53.3794 9.99718L54.7907 10.2351C57.3753 10.6587 59.3436 11.7282 59.3436 14.3128C59.3436 16.8974 56.9963 18.7914 53.7206 18.7914L53.7357 18.7763L53.7351 18.7769ZM67.6916 18.7769C63.5913 18.7769 60.8732 15.9765 60.8732 11.691C60.8732 7.40562 63.748 4.6568 67.7218 4.6568C71.6956 4.6568 74.2732 7.74683 74.2732 11.8245V12.4112H64.1269C64.2905 14.6244 65.8352 15.9242 67.6997 15.9242C69.5642 15.9242 70.1804 15.3892 70.6336 14.4607H74.0428C73.3523 16.9641 70.871 18.7763 67.6997 18.7763H67.6922L67.6916 18.7769ZM71.0195 10.2055C70.752 8.42286 69.3408 7.38299 67.6922 7.38299C66.0436 7.38299 64.4983 8.39327 64.1791 10.2055H71.0277H71.0201H71.0195Z" fill="white"/>
<path d="M0.801956 18.3837C0.266932 18.3837 0 18.1162 0 17.5818V5.86055C0 5.32553 0.267512 5.05859 0.801956 5.05859H12.5226C13.0576 5.05859 13.3245 5.32611 13.3245 5.86055V17.5812C13.3245 18.1162 13.057 18.3831 12.5226 18.3831H0.801956V18.3837Z" fill="white"/>
</g>
<defs>
<clipPath id="clip0_178503_112037">
<rect width="74.2767" height="18.792" fill="white"/>
</clipPath>
</defs>
</svg>
