<svg width="81" height="22" viewBox="0 0 81 22" fill="none" xmlns="http://www.w3.org/2000/svg">
<path d="M22.6016 2.64732H26.3278C27.2746 2.64732 27.9669 2.90184 28.4149 3.33962C28.8527 3.71632 29.0461 4.22537 29.0461 4.72424C29.0461 4.91768 29.0461 5.16202 28.985 5.35546C28.8629 5.67107 28.6694 5.98668 28.4149 6.24121C28.2927 6.36338 28.1604 6.43465 28.0382 6.49573C28.476 6.6179 28.8629 6.87243 29.1785 7.18804C29.433 7.50365 29.5552 7.88035 29.5552 8.45048C29.5552 8.7661 29.4941 9.14279 29.3617 9.39732C29.2396 9.65184 28.985 9.90637 28.7305 10.0896C28.4149 10.2831 28.0993 10.4052 27.7837 10.5274C27.407 10.6496 26.959 10.6496 26.5212 10.6496H22.6626V2.62695H22.6016V2.64732ZM26.0122 5.9256C26.3278 5.9256 26.6434 5.86451 26.959 5.73216C27.2136 5.60999 27.3357 5.35546 27.3357 5.10094C27.3357 4.84641 27.2136 4.59189 27.0201 4.46971C26.7656 4.27628 26.45 4.21519 26.1344 4.27628H24.3629V5.9765H26.002V5.9256H26.0122ZM26.45 9.15297C26.7656 9.15297 27.0812 9.09189 27.3968 8.95953C27.6513 8.83736 27.7735 8.58284 27.7124 8.26722C27.7124 8.0127 27.5903 7.75818 27.3968 7.636C27.2034 7.51383 26.8267 7.38148 26.3889 7.38148H24.3018V9.15297H26.45Z" fill="white"/>
<path d="M31.7539 2.64648H33.5254V10.7302H31.7539V2.64648Z" fill="white"/>
<path d="M36.2441 2.64648H37.8833L41.6706 7.63517V2.64648H43.4319V10.7302H41.9251L37.9444 5.60915V10.7302H36.2441V2.64648Z" fill="white"/>
<path d="M48.8077 2.58594H50.4468L53.9185 10.7307H52.0859L51.3325 8.89815H47.9219L47.1685 10.7307H45.3359L48.8077 2.58594ZM50.7013 7.38119L49.6323 4.73413L48.5633 7.38119H50.7013Z" fill="white"/>
<path d="M55.8125 2.64648H57.4516L61.239 7.63517V2.64648H63.0105V10.7302H61.4935L57.5738 5.60915V10.7302H55.8125V2.64648Z" fill="white"/>
<path d="M69.4453 10.8534C68.8751 10.8534 68.305 10.7313 67.8061 10.5378C66.7982 10.1001 66.0346 9.33648 65.5969 8.32856C65.4034 7.81951 65.2812 7.25955 65.2812 6.68942C65.2812 5.62041 65.719 4.54123 66.4826 3.72675C66.8593 3.35005 67.3073 3.03444 67.8061 2.841C68.3763 2.58648 68.9464 2.52539 69.5064 2.52539C69.822 2.52539 70.1987 2.52539 70.5143 2.58648C70.8299 2.64756 71.0844 2.70865 71.3389 2.841C71.5935 2.96317 71.848 3.09553 72.0313 3.2177C72.2247 3.33987 72.469 3.53331 72.6625 3.72675L71.5935 5.05028C71.2779 4.79575 70.9622 4.54123 70.6466 4.35797C70.331 4.17471 69.9543 4.10344 69.5776 4.10344C69.262 4.10344 68.9464 4.16453 68.6308 4.29688C68.3152 4.41906 68.0607 4.61249 67.8774 4.86702C67.6941 5.12154 67.5007 5.37607 67.3684 5.69168C67.2462 6.00729 67.1749 6.3229 67.1749 6.63851C67.1749 6.95412 67.236 7.33082 67.3684 7.64643C67.5007 7.96204 67.6229 8.21657 67.8774 8.47109C68.3152 8.98014 68.9464 9.22449 69.5776 9.22449C69.9543 9.22449 70.4023 9.1634 70.779 8.96996C71.0946 8.77652 71.4713 8.53218 71.7258 8.27765L72.8559 9.40774C72.6625 9.60118 72.4181 9.84553 72.2247 10.039C71.9702 10.2324 71.7156 10.3546 71.4713 10.4767C71.2168 10.5989 70.9012 10.7313 70.5856 10.7924C70.1376 10.8534 69.7609 10.8534 69.4453 10.8534Z" fill="white"/>
<path d="M74.8809 2.64648H80.9386V4.22454H76.5811V5.86368H80.4295V7.44173H76.5811V9.15214H80.9996V10.7302H74.8809V2.64648Z" fill="white"/>
<path d="M24.8715 18.6825C24.4337 18.6825 23.9857 18.6214 23.609 18.428C23.2323 18.3058 22.8556 18.0513 22.4688 17.7357L23.1 17.0433C23.3545 17.2979 23.609 17.42 23.9246 17.6135C24.2402 17.7357 24.5559 17.8069 24.8715 17.8069C25.126 17.8069 25.3805 17.7458 25.6249 17.6135C25.8183 17.4913 25.8794 17.2979 25.8794 17.1044C25.8794 17.0433 25.8794 16.911 25.8183 16.8499C25.7572 16.7888 25.6961 16.6565 25.6249 16.5954C25.5027 16.5343 25.3703 16.4732 25.2482 16.4019C25.0547 16.3409 24.8104 16.2798 24.6169 16.2085C24.3624 16.1474 24.0468 16.0863 23.7923 15.954C23.5988 15.8929 23.3545 15.7605 23.2221 15.6384C23.1 15.5162 22.9676 15.3838 22.8454 15.2006C22.7233 14.9461 22.7233 14.6915 22.7233 14.5083C22.7233 14.2538 22.7844 14.0705 22.8454 13.816C22.9065 13.6225 23.1 13.4393 23.2221 13.3069C23.4156 13.1848 23.5988 13.0524 23.8534 12.9913C24.1079 12.9302 24.3624 12.8691 24.6068 12.8691C24.9835 12.8691 25.3602 12.9302 25.747 13.0626C26.0626 13.1848 26.3783 13.3782 26.6939 13.5716L26.1848 14.325C25.9303 14.1316 25.6758 14.0094 25.4314 13.8872C25.1769 13.7651 24.9224 13.7651 24.678 13.7651C24.4235 13.7651 24.169 13.8262 23.9857 13.9585C23.8635 14.0807 23.7312 14.2741 23.7312 14.4676C23.7312 14.5897 23.7312 14.661 23.7923 14.7832C23.8534 14.8443 23.9145 14.9766 23.9857 15.0377C24.1079 15.0988 24.2402 15.1599 24.4235 15.2311C24.6169 15.2922 24.8002 15.3533 25.1158 15.4246C25.3703 15.4857 25.6249 15.5467 25.9405 15.6791C26.1339 15.7402 26.3172 15.8725 26.5106 15.9947C26.6328 16.1169 26.7651 16.3103 26.8262 16.4325C26.8873 16.6259 26.9484 16.8092 26.9484 17.0637C26.9484 17.3182 26.8873 17.5728 26.8262 17.756C26.704 17.9495 26.5717 18.1327 26.3884 18.3262C26.195 18.4483 26.0117 18.5807 25.7572 18.6418C25.4416 18.6214 25.126 18.6825 24.8715 18.6825Z" fill="white"/>
<path d="M28.0293 12.9395H29.1085L30.8087 15.5865L32.5802 12.9395H33.6492V18.6204H32.6413V14.5175L30.8698 17.1646H30.8087L29.0474 14.5175V18.6204H28.0293V12.9395Z" fill="white"/>
<path d="M37.0591 12.8789H38.0059L40.4697 18.5599H39.4007L38.8306 17.1753H36.1835L35.6134 18.5599H34.6055L37.0591 12.8789ZM38.515 16.3506L37.5071 14.0803L36.5602 16.3506H38.515Z" fill="white"/>
<path d="M41.4771 12.9395H44.002C44.3176 12.9395 44.6332 13.0005 44.9488 13.0616C45.2033 13.1227 45.4579 13.3161 45.6411 13.4994C45.7633 13.6216 45.8957 13.815 46.0178 14.0695C46.0789 14.263 46.14 14.5073 46.14 14.7619C46.14 14.9553 46.0789 15.1996 46.0178 15.3931C45.9567 15.5865 45.8244 15.7087 45.7633 15.9021C45.6411 16.0243 45.5088 16.1566 45.3255 16.2788C45.1321 16.401 44.9488 16.4723 44.7554 16.5333L46.2724 18.6815H45.071L43.6864 16.7268H42.4239V18.6815H41.416L41.4771 12.9395ZM43.9409 15.7189C44.2565 15.7189 44.5721 15.6578 44.7656 15.4643C44.959 15.2709 45.0812 15.0266 45.0812 14.772C45.0812 14.5175 44.959 14.263 44.7656 14.0797C44.511 13.8863 44.1954 13.8252 43.8798 13.8252H42.4239V15.7189H43.9409Z" fill="white"/>
<path d="M48.7369 13.8252H46.9043V12.9395H51.5163V13.8252H49.6837V18.6204H48.6758L48.7369 13.8252Z" fill="white"/>
<path d="M57.6454 18.6815C57.2687 18.6815 56.892 18.6204 56.5051 18.427C55.8128 18.1114 55.2427 17.6023 54.9881 16.91C54.866 16.5333 54.7336 16.1566 54.7947 15.7697C54.7947 15.393 54.8558 15.0163 54.9881 14.6295C55.2427 13.9371 55.8128 13.367 56.5051 13.0514C56.8818 12.9292 57.2585 12.7969 57.7065 12.7969C57.961 12.7969 58.2155 12.7969 58.3988 12.858C58.5922 12.919 58.7755 12.9801 58.9689 13.0514C59.1623 13.1125 59.2845 13.2448 59.4779 13.3059C59.6001 13.4281 59.7936 13.5605 59.9157 13.6826L59.2845 14.436C59.0911 14.2426 58.8467 14.0593 58.5922 13.927C58.3377 13.8048 58.0221 13.7335 57.7065 13.7335C57.4519 13.7335 57.1974 13.7946 56.9531 13.8557C56.6985 13.9779 56.5153 14.1102 56.3218 14.2935C56.1284 14.4869 56.0062 14.6702 55.9451 14.9247C55.8841 15.1792 55.823 15.4338 55.823 15.6781C55.823 15.9326 55.8841 16.1871 55.9451 16.4315C56.0062 16.6758 56.1386 16.8693 56.3218 17.0627C56.5153 17.2562 56.6985 17.3783 56.9531 17.5005C57.2076 17.6227 57.4621 17.6939 57.7065 17.6227C58.0221 17.6227 58.3377 17.5616 58.5922 17.4292C58.8467 17.3071 59.1012 17.1136 59.3456 16.8591L59.9768 17.4903C59.8546 17.6125 59.6612 17.8059 59.539 17.9281C59.3456 18.0503 59.2234 18.1826 59.03 18.2437C58.8365 18.3048 58.6533 18.4371 58.3988 18.4371C58.1442 18.6815 57.8897 18.6815 57.6454 18.6815Z" fill="white"/>
<path d="M60.9844 12.9395H61.9312V15.2709H64.6495V12.9395H65.6574V18.6204H64.6495V16.2177H61.9312V18.6204H60.9844V12.9395Z" fill="white"/>
<path d="M69.1294 12.8789H70.0762L72.54 18.5599H71.471L70.9009 17.1753H68.2538L67.6837 18.5599H66.6758L69.1294 12.8789ZM70.5242 16.3506L69.5774 14.0803L68.6305 16.3506H70.5242Z" fill="white"/>
<path d="M73.5469 12.9395H74.565V18.6204H73.5469V12.9395Z" fill="white"/>
<path d="M76.0723 12.9395H76.958L79.9919 16.849V12.9395H80.9999V18.6204H80.1752L77.0904 14.5786V18.6204H76.0723V12.9395Z" fill="white"/>
<path d="M11.4943 18.2443V20.7081L9.34615 21.9706L7.25905 20.7081V18.2443L9.34615 19.5068L11.4943 18.2443ZM0 9.72285L2.0871 10.9853V15.2104L5.681 17.3586V19.8224L0 16.4728V9.72285ZM18.6923 9.72285V16.483L12.9502 19.8326V17.3688L16.5441 15.2206V10.9955L18.6923 9.72285ZM12.94 6.3733L15.0882 7.63575V10.0995L11.4943 12.2477V16.5339L9.40724 17.7964L7.33032 16.5339V12.2376L3.60407 10.0894V7.62557L5.75226 6.36312L9.34615 8.51131L12.94 6.3733ZM3.60407 11.8609L5.69118 13.1233V15.5871L3.60407 14.3247V11.8609ZM15.0882 11.8609V14.3247L13.0011 15.5871V13.1233L15.0882 11.8609ZM2.0871 4.22511L4.23529 5.48756L2.0871 6.75V9.2138L0 7.95136V5.48756L2.0871 4.22511ZM16.6052 4.22511L18.7534 5.48756V7.95136L16.6052 9.2138V6.75L14.5181 5.48756L16.6052 4.22511ZM9.34615 4.22511L11.4943 5.48756L9.34615 6.75L7.25905 5.48756L9.34615 4.22511ZM9.34615 0L15.0882 3.34955L13.0011 4.61199L9.40724 2.4638L5.74208 4.61199L3.65498 3.34955L9.34615 0Z" fill="white"/>
</svg>
