<svg width="104" height="17" viewBox="0 0 104 17" fill="none" xmlns="http://www.w3.org/2000/svg">
<g clip-path="url(#clip0_178503_112040)">
<path d="M7.70901 13.0255V10.9321H9.86977V13.4825C9.87088 13.8115 9.80694 14.1374 9.68163 14.4416C9.55631 14.7457 9.3721 15.0221 9.13958 15.2548C8.90706 15.4876 8.63082 15.672 8.32676 15.7976C8.0227 15.9231 7.69681 15.9874 7.36784 15.9865H2.47876C1.09196 15.9865 0 14.8703 0 13.4814V3.32736C0 1.9374 1.09196 0.822274 2.47876 0.822274H7.36784C7.6969 0.821438 8.02287 0.885687 8.32701 1.01132C8.63114 1.13696 8.90742 1.3215 9.13995 1.55433C9.37249 1.78715 9.55668 2.06367 9.68193 2.36796C9.80718 2.67225 9.87102 2.9983 9.86977 3.32736V5.7619H7.70901V3.78226C7.70901 3.2347 7.27728 2.82508 6.73183 2.82508H3.13794C2.59249 2.82508 2.16076 3.23575 2.16076 3.7812V13.0244C2.16076 13.572 2.59249 13.9816 3.13794 13.9816H6.73183C7.27728 13.9816 7.70901 13.5709 7.70901 13.0244V13.0255ZM12.4149 15.9865V0.823327H14.5756V13.9827H21.2622V15.9855H12.4149V15.9865ZM29.7641 0.823327L34.927 15.9865H32.7441L31.5152 12.3884H25.9438L24.7613 15.9855H22.5553L27.7171 0.823327H29.7641ZM28.7406 3.71381L26.603 10.4309H30.8782L28.7406 3.71381ZM47.1491 0.823327V15.9865H45.0579L38.6451 4.76155V15.9865H36.5528V0.823327H38.6451L45.0579 12.0925V0.822274H47.1502L47.1491 0.823327ZM50.0301 15.9865V0.823327H52.1909V7.97109L57.4443 0.823327H60.0368L54.419 8.31332L60.3095 15.9855H57.6718L52.1909 8.69977V15.9865H50.0301ZM61.71 15.9865V0.823327H70.6247V2.82613H63.8697V7.24347H70.0108V9.24627H63.8697V13.9827H70.6468V15.9855H61.71V15.9865ZM81.697 15.9865L78.7181 9.86123H75.239V15.9855H73.0782V0.823327H80.5608C81.9708 0.823327 83.0617 1.93951 83.0617 3.32841V7.35824C83.0617 8.5871 82.312 9.52111 81.061 9.817L84.062 15.9876L81.697 15.9865ZM80.902 6.92441V3.78226C80.902 3.23575 80.4913 2.82613 79.9227 2.82613H75.239V7.88053H79.9227C80.4913 7.88053 80.902 7.46986 80.902 6.92441Z" fill="white"/>
<path d="M103.027 0.823319H100.486V16.0307H103.027V0.823319ZM97.7333 6.57902H95.1914V16.0318H97.7333V6.57902ZM92.4589 12.3326H89.918V16.0307H92.4589V12.3326Z" fill="white"/>
</g>
<defs>
<clipPath id="clip0_178503_112040">
<rect width="103.194" height="16.848" fill="white"/>
</clipPath>
</defs>
</svg>
