<svg width="25" height="30" viewBox="0 0 25 30" fill="none" xmlns="http://www.w3.org/2000/svg">
<g clip-path="url(#clip0_178503_112258)">
<path fill-rule="evenodd" clip-rule="evenodd" d="M15.0607 10.6866C15.9711 10.229 17.1296 9.5554 18.2894 8.6325C18.5339 9.1444 18.5607 9.5911 18.4347 9.9518C18.3454 10.206 18.1772 10.4271 17.9559 10.603C17.7164 10.7931 17.4172 10.9315 17.0864 11.0063C16.4588 11.1488 15.7261 11.0656 15.0607 10.6866ZM15.2185 15.3752L16.4237 16.0769C13.963 17.4671 13.294 20.0485 12.4994 22.5628C11.7048 20.0485 11.0358 17.4671 8.57519 16.0769L9.78034 15.3752C9.89693 15.3308 9.99657 15.2503 10.065 15.1453C10.1334 15.0403 10.1671 14.9162 10.1613 14.7907C10.0509 12.436 10.6816 11.3947 11.5324 10.7409C11.8376 10.5067 12.1707 10.3891 12.4994 10.3891C12.8281 10.3891 13.1612 10.5067 13.4665 10.7409C14.3172 11.3947 14.948 12.436 14.8376 14.7907C14.8317 14.9162 14.8654 15.0403 14.9339 15.1453C15.0023 15.2503 15.102 15.3308 15.2185 15.3752ZM12.4994 0C13.8924 0.0377 15.289 0.3103 16.501 0.8406C17.3403 1.2083 18.1234 1.694 18.8325 2.2748C19.1528 2.537 19.4165 2.7903 19.7069 3.0819C20.4904 3.1092 21.6353 2.2319 22.1669 1.411C21.2521 4.434 17.0777 8.0039 14.1877 9.3699C14.1865 9.3694 14.1857 9.3687 14.1848 9.3681C13.6662 8.9689 13.0828 8.7693 12.4994 8.7693C11.916 8.7693 11.3327 8.9689 10.8141 9.3681C10.8132 9.3686 10.8124 9.3695 10.8112 9.3699C7.92112 8.0039 3.74681 4.434 2.83203 1.411C3.36348 2.2319 4.50842 3.1092 5.29185 3.0819C5.58243 2.7904 5.84612 2.537 6.16626 2.2748C6.87538 1.694 7.65852 1.2083 8.49781 0.8406C9.70991 0.3103 11.1064 0.0377 12.4994 0ZM9.93808 10.6866C9.02777 10.229 7.86923 9.5554 6.70951 8.6325C6.46497 9.1444 6.43818 9.5911 6.56407 9.9518C6.65346 10.206 6.82171 10.4271 7.04284 10.603C7.28253 10.7931 7.58173 10.9315 7.91249 11.0063C8.54007 11.1488 9.27271 11.0656 9.93808 10.6866Z" fill="white"/>
<path fill-rule="evenodd" clip-rule="evenodd" d="M19.5602 7.50209C20.1987 6.85259 20.7613 6.13369 21.2137 5.49219L21.4435 5.92809C22.1831 7.41979 22.5675 8.90549 22.5675 10.5775L22.5659 13.2307L22.5798 14.6061C22.6333 17.9827 23.3581 21.399 25 24.5254L21.5648 21.7332L19.1341 25.7091L16.5806 23.286L12.5 29.9609L8.41944 23.2861L5.86597 25.7092L3.43532 21.7333L0 24.5255C1.64187 21.3991 2.36667 17.9828 2.42034 14.6062L2.43423 13.2308L2.43264 10.5776C2.43264 8.90549 2.81687 7.41979 3.55675 5.92819L3.78641 5.49229C4.23879 6.13379 4.80129 6.85259 5.43988 7.50219L5.24048 7.91969C4.85308 8.73059 4.7248 9.63729 5.02659 10.4996C5.22113 11.055 5.57619 11.5313 6.03393 11.8949C6.47837 12.248 7.00437 12.486 7.55506 12.611C7.91379 12.6924 8.27927 12.7259 8.64236 12.7145C8.55764 13.1986 8.52063 13.7007 8.51825 14.2123L5.27778 16.0989L7.77837 17.5118C7.97824 17.6247 8.1685 17.7541 8.34722 17.8987C10.4088 19.7645 11.6483 25.2842 12.5001 27.9803C13.352 25.2842 14.5914 19.7645 16.6531 17.8987C16.8318 17.7541 17.022 17.6247 17.2219 17.5118L19.7225 16.0989L16.4819 14.2123C16.4796 13.7007 16.4426 13.1986 16.3578 12.7145C16.7209 12.7259 17.0864 12.6924 17.4451 12.611C17.9958 12.486 18.5219 12.248 18.9663 11.8949C19.4239 11.5313 19.7791 11.055 19.9735 10.4996C20.2754 9.63729 20.147 8.73069 19.7597 7.91969L19.5603 7.50219L19.5602 7.50209Z" fill="white"/>
</g>
<defs>
<clipPath id="clip0_178503_112258">
<rect width="25" height="30" fill="white"/>
</clipPath>
</defs>
</svg>
