<svg width="85" height="21" viewBox="0 0 85 21" fill="none" xmlns="http://www.w3.org/2000/svg">
<path d="M40.0321 7.40151C44.1871 7.39373 42.8319 12.6892 43.0454 15.323H40.666V10.792C40.6682 10.0475 40.2899 9.52321 39.5244 9.52761C38.6815 9.52653 38.2832 10.1482 38.2876 10.9757V15.322H35.9082V10.7909C35.9104 10.0464 35.5321 9.52208 34.7666 9.52653C33.9237 9.52541 33.5254 10.1471 33.5298 10.9745V15.3208H31.1504V7.61501H33.5298V8.32409C34.3141 7.08734 36.9469 7.0619 37.7334 8.41702C38.2202 7.73887 38.9868 7.3993 40.0333 7.3993" fill="white"/>
<path d="M51.2588 14.357C55.1038 10.2939 49.2741 4.93433 45.2952 8.57817C41.4499 12.6402 47.2795 18.002 51.2588 14.357ZM46.9753 12.7774C45.3138 11.0207 47.8005 8.52399 49.577 10.1567C51.2385 11.9134 48.7518 14.4101 46.9753 12.7774Z" fill="white"/>
<path d="M56.0043 15.3222H53.4766V7.57321H55.8782V9.44049C56.448 7.49134 57.9821 6.95153 59.4734 7.67387L58.7844 10.06C55.336 8.70817 56.0838 12.8155 56.0052 15.3211L56.0043 15.3222Z" fill="white"/>
<path d="M65.5346 8.72472C65.5791 8.29438 64.976 7.43267 63.1719 7.4017C61.0369 7.34195 59.3235 9.34419 59.3809 11.4692C59.3114 13.6031 61.0589 15.5788 63.1719 15.5379C64.1863 15.5379 65.2339 15.185 65.5346 14.4106V15.3232H67.9142V7.6174H65.5346V8.72472ZM62.2837 12.8409C60.6057 10.9415 63.0954 8.45259 65.0127 10.0975C66.6907 11.9969 64.1997 14.487 62.2837 12.8409Z" fill="white"/>
<path d="M72.0475 4.07227H69.668V15.3224H72.0475V4.07227Z" fill="white"/>
<path d="M76.0324 6.53163C77.3687 5.22412 75.298 3.29487 74.0179 4.57474C72.683 5.8823 74.7515 7.81041 76.0324 6.53163ZM73.8356 15.3238H76.2152V7.61794H73.8356V15.3238Z" fill="white"/>
<path d="M80.2174 9.86568C80.7199 10.7429 82.9996 10.4475 83.7142 11.6754C85.9689 15.7297 78.6997 16.8967 77.4102 13.7009L79.4722 12.5604C79.7664 14.035 82.7685 13.4432 81.272 12.6057C80.6533 12.3668 79.8126 12.2175 79.1547 11.9199C77.5618 11.3756 77.2974 8.98181 78.6712 8.05811C80.2187 6.90435 82.972 7.26163 83.9756 9.04484L81.9455 10.1079C81.7023 9.41655 80.3038 9.09794 80.2166 9.86456L80.2174 9.86568Z" fill="white"/>
<path d="M24.0985 2.55545C21.3396 -0.742163 16.0298 -0.784198 13.0718 2.22912C7.68235 -2.92139 -0.523525 1.52114 0.0262614 8.75023H0.0284738C0.237548 13.018 3.10705 16.3388 7.16353 18.5933C7.69561 18.872 8.32947 18.7525 8.7255 18.2791C9.28303 17.642 9.03189 16.8012 8.49096 16.2559C7.50314 14.8786 6.40024 13.2625 5.78297 11.5025C4.89909 9.54225 5.45994 6.34975 7.79739 6.17275C9.28968 6.06103 10.1027 7.72033 10.9722 9.13075H10.9733C11.6625 11.0533 14.7544 10.9062 15.2709 8.93276C16.0342 6.67717 17.4756 6.18826 18.0077 6.18048C21.0553 6.35748 20.8263 9.85534 18.9004 12.2425C17.9192 13.7702 16.4391 14.4892 15.4203 15.7879C14.063 17.8189 15.6736 20.7338 18.1792 20.736C21.8673 20.215 25.4536 14.5147 26.1582 11.5534C27.0399 8.48583 26.2445 4.83867 24.0985 2.55434V2.55545ZM4.94113 1.59083C7.41907 0.444802 10.4843 1.0333 12.407 2.9736C11.7565 3.7579 11.2919 4.63842 11.0253 5.5909C9.59719 2.06872 4.90022 1.34083 2.27408 3.88069C2.94555 2.8862 3.8814 2.07535 4.94225 1.59083H4.94113ZM7.79627 5.17828C4.7376 5.27782 3.69556 9.27457 4.84825 11.8465C5.5927 13.9041 6.79515 15.6508 7.98212 17.2227C8.17792 17.5546 7.89032 17.8344 7.62813 17.7127C3.82388 15.5766 1.01853 12.4439 1.04397 8.40176C1.40128 3.39838 8.17126 1.15167 10.2222 6.25349C9.63257 5.62296 8.88699 5.17715 7.79519 5.17715L7.79627 5.17828ZM12.949 9.51681C11.3483 9.40508 11.6912 6.92606 11.9622 5.93051C13.5994 0.20586 21.49 -0.775346 24.3463 4.55768C21.5719 1.02113 16.3638 1.96252 14.8749 6.35528C14.3616 7.44933 14.6581 9.69713 12.949 9.51681ZM19.6604 19.163C17.5354 20.8411 15.0364 18.4893 16.261 16.32C17.3229 15.132 18.7267 14.3211 19.6947 12.841C21.3197 10.6994 21.7578 8.44824 20.8662 6.81987C19.959 5.07762 17.6769 4.68046 16.1814 5.86191C20.6836 -1.70678 32.0377 9.49581 19.6604 19.163Z" fill="white"/>
</svg>
