<svg width="81" height="22" viewBox="0 0 81 22" fill="none" xmlns="http://www.w3.org/2000/svg">
<g clip-path="url(#clip0_178503_112174)">
<path d="M30.5255 4.68945C27.2786 4.68945 24.6152 7.35008 24.6152 10.6088C24.6152 13.8676 27.2718 16.5282 30.5255 16.5282C33.7792 16.5282 36.4357 13.8813 36.4357 10.6088C36.4357 7.33633 33.7861 4.68945 30.5255 4.68945ZM30.5255 14.4038C28.5074 14.4038 26.8805 12.747 26.8805 10.6088C26.8805 8.4707 28.5074 6.80695 30.5255 6.80695C32.5436 6.80695 34.1705 8.46383 34.1705 10.602C34.1705 12.7401 32.5436 14.4038 30.5255 14.4038Z" fill="white"/>
<path d="M42.4007 7.97461C41.3367 7.97461 40.3002 8.40086 39.7579 9.12273V8.13961H37.623V19.6415H39.7579V15.4821C40.3002 16.1559 41.3024 16.5202 42.4007 16.5202C44.7003 16.5202 46.5056 14.7121 46.5056 12.244C46.5056 9.77586 44.7003 7.97461 42.4007 7.97461ZM42.0437 14.664C40.8287 14.664 39.7442 13.7084 39.7442 12.2509C39.7442 10.7934 40.8287 9.83773 42.0437 9.83773C43.2587 9.83773 44.3433 10.7934 44.3433 12.2509C44.3433 13.7084 43.2587 14.664 42.0437 14.664Z" fill="white"/>
<path d="M51.5241 7.97461C49.1971 7.97461 47.3574 9.79648 47.3574 12.2509C47.3574 14.7052 48.9637 16.5271 51.5928 16.5271C53.7413 16.5271 55.1211 15.2277 55.5467 13.7634H53.4599C53.199 14.3684 52.4577 14.8015 51.5722 14.8015C50.4739 14.8015 49.6364 14.0315 49.4373 12.9246H55.6428V12.0859C55.6428 9.84461 54.0845 7.97461 51.5241 7.97461ZM49.4579 11.4052C49.6845 10.3671 50.5425 9.69336 51.5722 9.69336C52.6705 9.69336 53.5079 10.4152 53.604 11.4052H49.4579Z" fill="white"/>
<path d="M61.3196 7.97461C60.3655 7.97461 59.3701 8.40086 58.9102 9.10898V8.13961H56.7754V16.3552H58.9102V11.9346C58.9102 10.6559 59.5967 9.81711 60.7156 9.81711C61.7521 9.81711 62.3081 10.6077 62.3081 11.7077V16.3552H64.4429V11.3571C64.4429 9.32211 63.1936 7.97461 61.3196 7.97461Z" fill="white"/>
<path d="M69.9001 4.85352L65.2598 16.3554H67.5387L68.5204 13.8391H73.8059L74.7876 16.3554H77.1009L72.488 4.85352H69.9001ZM69.2617 11.9348L71.1632 7.12227L73.0509 11.9348H69.2617Z" fill="white"/>
<path d="M80.1428 4.85352H77.9805V16.3554H80.1496V4.85352H80.1428Z" fill="white"/>
<path d="M8.45761 8.13281V5.84344C8.45761 5.69219 8.4988 5.58219 8.65668 5.49281L12.8989 3.02469C13.4686 2.69469 14.1963 2.54344 14.9033 2.54344C17.5873 2.54344 19.2828 4.61281 19.2828 6.84031C19.2828 7.01906 19.2828 7.25969 19.2416 7.45906L14.8003 4.86031C14.5807 4.72969 14.3404 4.70906 14.0727 4.86031L8.45761 8.13281ZM18.2669 16.2659V11.1784C18.2669 10.8897 18.157 10.6972 17.8962 10.5391L12.2674 7.25969L14.2443 6.11156C14.3541 6.04281 14.5326 6.04281 14.6424 6.11156L18.9121 8.57969C20.1202 9.28781 20.9577 10.8278 20.9577 12.2991C20.9508 14.0384 19.8937 15.6472 18.2669 16.2659ZM7.29066 11.8797L5.33431 10.7109C5.18329 10.6216 5.13524 10.5116 5.13524 10.3603V5.45156C5.13524 3.05219 6.96117 1.24406 9.44609 1.24406C10.414 1.24406 11.3407 1.57406 12.082 2.17219L7.66821 4.74344C7.40736 4.89469 7.29753 5.09406 7.29753 5.38281V11.8797H7.29066ZM11.121 14.0866L8.45761 12.5878V9.41844L11.121 7.91969L13.7569 9.41844V12.5878L11.121 14.0866ZM12.7685 20.7553C11.8006 20.7553 10.8739 20.4253 10.1325 19.8272L14.5532 17.2559C14.8141 17.1047 14.9239 16.9053 14.9239 16.6166V10.1197L16.9008 11.2884C17.0518 11.3778 17.0999 11.4878 17.0999 11.6391V16.5547C17.0999 18.9541 15.2534 20.7553 12.7685 20.7553ZM7.57897 15.8878L3.30931 13.4197C2.10117 12.7116 1.26371 11.1716 1.26371 9.70031C1.26371 7.94031 2.34143 6.35219 3.96829 5.73344V10.8416C3.96829 11.1303 4.07812 11.3228 4.33897 11.4809L9.94719 14.7397L7.97024 15.8878C7.86727 15.9566 7.6888 15.9566 7.57897 15.8878ZM7.31126 19.4559C4.78516 19.4559 2.93177 17.5584 2.93177 15.2072C2.93177 14.9872 2.95236 14.7672 2.97295 14.5678L7.39363 17.1253C7.65448 17.2766 7.87414 17.2766 8.14185 17.1253L13.7501 13.8666V16.1559C13.7501 16.3072 13.7089 16.4172 13.551 16.5066L9.31566 18.9747C8.74592 19.3047 8.01829 19.4559 7.31126 19.4559ZM12.7685 21.9447C15.4044 21.9447 17.6079 20.0472 18.0884 17.5378C20.5527 16.9191 22.1384 14.6297 22.1384 12.2922C22.1384 10.7522 21.4794 9.27406 20.2713 8.19469C20.3811 7.73406 20.4703 7.24594 20.4703 6.78531C20.4703 3.67781 17.9442 1.34719 15.0406 1.34719C14.4434 1.34719 13.853 1.45719 13.2833 1.65656C12.288 0.666563 10.9425 0.0546875 9.44609 0.0546875C6.81015 0.0546875 4.60668 1.95219 4.12617 4.46156C1.66185 5.08031 0.0761719 7.36969 0.0761719 9.70719C0.0761719 11.2472 0.735155 12.7253 1.94329 13.8047C1.83346 14.2653 1.74422 14.7534 1.74422 15.2141C1.74422 18.3216 4.27032 20.6522 7.17397 20.6522C7.77117 20.6522 8.36151 20.5422 8.93126 20.3428C9.93346 21.3328 11.272 21.9447 12.7685 21.9447Z" fill="white"/>
</g>
<defs>
<clipPath id="clip0_178503_112174">
<rect width="81" height="22" fill="white"/>
</clipPath>
</defs>
</svg>
