<svg width="81" height="10" viewBox="0 0 81 10" fill="none" xmlns="http://www.w3.org/2000/svg">
<g clip-path="url(#clip0_178503_112132)">
<path d="M66.4871 9.50746H68.9404L69.938 2.38588H70.1447L71.6902 9.50746H74.5388L77.9716 2.38588H78.1514L77.1629 9.50746H79.7059L81 0.217865H76.7313L73.4783 6.94018L72.0135 0.217865H67.7808L66.4867 9.50746H66.4871ZM60.4843 9.72512C63.827 9.72512 65.3278 8.88139 65.5883 6.78573C65.8131 4.95315 64.8424 4.09137 62.4879 3.87371L60.1156 3.65605C59.2259 3.57437 58.9742 3.38386 58.9923 2.96654C59.0192 2.26793 59.7291 1.97769 61.2661 1.97769C62.8029 1.97769 63.306 2.26793 63.2791 3.13882H65.8669C66.1365 0.925214 64.8424 0 61.4638 0C58.0848 0 56.701 0.88001 56.4402 2.94831C56.2247 4.66294 57.0603 5.51558 59.3607 5.73344L61.9038 5.96938C62.7306 6.04192 63.063 6.27782 62.982 6.8131C62.8923 7.46632 62.2812 7.74742 60.6547 7.74742C58.9473 7.74742 58.3722 7.42984 58.4441 6.55896H55.8291C55.5683 8.77256 56.9433 9.72512 60.484 9.72512H60.4843ZM51.552 9.50746H54.1848L55.4792 0.217865H52.846L51.552 9.50746ZM32.3572 9.50746H34.9901L36.2841 0.217676H33.651L32.357 9.50726L32.3572 9.50746ZM25.1051 9.50746H27.7381L28.7176 2.48579H32.2042L32.5189 0.217865H22.7236L22.4091 2.48579H26.0844L25.1049 9.50746H25.1051ZM14.5372 4.97139L14.9056 2.30421H17.6374C18.6978 2.30421 19.1021 2.72151 18.9853 3.63781C18.8594 4.57213 18.3204 4.97139 17.1431 4.97139H14.537H14.5372ZM11.3561 9.50746H13.8992L14.2407 7.05792H17.278C19.929 7.05792 21.2589 6.03282 21.5825 3.70125C21.9059 1.3788 20.7558 0.217676 18.1047 0.217676H12.65L11.3559 9.50726L11.3561 9.50746ZM4.98477 7.50258C3.11568 7.50258 2.41463 6.73142 2.66638 4.9353C2.936 3.02105 3.88862 2.22272 5.84746 2.22272C7.80629 2.22272 8.40855 2.99389 8.15699 4.79002C7.88739 6.67689 6.97089 7.50258 4.98477 7.50258ZM4.80508 9.72512C8.43566 9.72512 10.2867 8.23728 10.745 4.9351C11.2033 1.63295 9.6577 0 6.02715 0C2.39657 0 0.536512 1.48783 0.0781753 4.79002C-0.380162 8.09216 1.17453 9.72512 4.80489 9.72512H4.80508ZM36.6616 9.50746H39.1149L40.1122 2.38588H40.3189L41.8647 9.50746H44.7133L48.1461 2.38588H48.3256L47.337 9.50746H49.8801L51.1742 0.217865H46.9058L43.6525 6.94018L42.1877 0.217865H37.9553L36.6612 9.50746H36.6616Z" fill="#FAFAF9"/>
</g>
<defs>
<clipPath id="clip0_178503_112132">
<rect width="81" height="9.7524" fill="white"/>
</clipPath>
</defs>
</svg>
