<svg width="91" height="20" viewBox="0 0 91 20" fill="none" xmlns="http://www.w3.org/2000/svg">
<g clip-path="url(#clip0_178503_112117)">
<path d="M28.9648 18.4034V6.00852H30.8162L30.9888 7.01266H31.0829C31.6164 6.32232 32.5107 5.83594 33.7502 5.83594C36.0409 5.83594 37.8609 7.70301 37.8609 10.4487C37.8609 13.1944 36.0252 15.0615 33.7502 15.0615C32.5264 15.0615 31.6635 14.5594 31.2085 13.9789H31.1143V18.4034H28.9648ZM35.7114 10.4487C35.7114 8.83266 34.6759 7.81283 33.405 7.81283C32.1342 7.81283 31.0986 8.83266 31.0986 10.4487C31.0986 12.0647 32.1342 13.0846 33.405 13.0846C34.6759 13.0846 35.7114 12.0647 35.7114 10.4487Z" fill="white"/>
<path d="M38.9414 10.4487C38.9414 7.76576 40.8712 5.83594 43.46 5.83594C46.0488 5.83594 47.9786 7.76576 47.9786 10.4487C47.9786 13.1316 46.0331 15.0615 43.46 15.0615C40.8869 15.0615 38.9414 13.1159 38.9414 10.4487ZM45.8135 10.4487C45.8135 8.86404 44.7623 7.81283 43.46 7.81283C42.1578 7.81283 41.0909 8.86404 41.0909 10.4487C41.0909 12.0334 42.1578 13.0689 43.46 13.0689C44.7623 13.0689 45.8135 12.0334 45.8135 10.4487Z" fill="white"/>
<path d="M49.5156 14.8885V2.60352H51.6651V14.9042L49.5156 14.8885Z" fill="white"/>
<path d="M59.6208 6.00983H61.8958L58.0361 16.8043C57.6439 17.8712 57.1261 18.4047 55.7297 18.4047H53.6587V16.4121H55.4159C55.7297 16.4121 55.9023 16.2552 56.0121 15.9885L56.2161 15.4079L52.5918 5.99414H54.8668L57.1732 12.1602H57.5183L59.6208 6.00983Z" fill="white"/>
<path d="M62.3176 15.3282H64.4984C64.5926 15.9087 65.1574 16.6932 66.5381 16.6932C67.8246 16.6932 68.6562 15.8773 68.6562 14.6535V13.414H68.5621C68.0914 13.9161 67.2127 14.3868 66.0831 14.3868C63.8081 14.3868 62.0352 12.6296 62.0352 10.1035C62.0352 7.57749 63.7924 5.83594 66.0831 5.83594C67.2598 5.83594 68.1227 6.30663 68.6719 6.98128H68.766L68.9386 6.00852H70.8057V14.6692C70.8057 17.0227 69.221 18.5916 66.5381 18.5916C63.5257 18.5759 62.3646 16.6147 62.3176 15.3282ZM68.6562 10.1035C68.6562 8.72283 67.6677 7.75008 66.4283 7.75008C65.1888 7.75008 64.216 8.72283 64.216 10.1035C64.216 11.4842 65.2045 12.4727 66.4283 12.4727C67.6521 12.4727 68.6562 11.4999 68.6562 10.1035Z" fill="white"/>
<path d="M72.2832 10.4487C72.2832 7.76576 74.213 5.83594 76.8018 5.83594C79.3906 5.83594 81.3204 7.76576 81.3204 10.4487C81.3204 13.1316 79.3906 15.0615 76.8018 15.0615C74.213 15.0615 72.2832 13.1159 72.2832 10.4487ZM79.1553 10.4487C79.1553 8.86404 78.1041 7.81283 76.8018 7.81283C75.4996 7.81283 74.4327 8.86404 74.4327 10.4487C74.4327 12.0334 75.4996 13.0689 76.8018 13.0689C78.1041 13.0689 79.1553 12.0334 79.1553 10.4487Z" fill="white"/>
<path d="M82.8086 14.8889V6.00852H84.66L84.8326 6.85577H84.9267C85.2719 6.44783 86.1505 5.83594 87.4841 5.83594C89.5238 5.83594 90.9986 7.31077 90.9986 9.55439V14.8889H88.8491V9.8368C88.8491 8.69145 88.0332 7.87559 86.935 7.87559C85.8367 7.87559 84.9424 8.73852 84.9424 9.8368V14.8889H82.8086Z" fill="white"/>
<path d="M16.4898 13.8539L21.7616 10.8101C22.044 10.6532 22.2166 10.3551 22.2166 10.0257V3.93807C22.2166 3.62428 22.044 3.31049 21.7616 3.15359L16.4898 0.125485C16.2074 -0.0314116 15.8622 -0.0314116 15.5798 0.125485L10.3238 3.16928C10.0414 3.32618 9.86879 3.62428 9.86879 3.95376V14.8267L6.16603 16.9448L2.47897 14.811V10.5591L6.16603 8.42531L8.59793 9.83738V6.96618L6.60534 5.82083C6.46414 5.74238 6.30724 5.69531 6.15034 5.69531C5.99345 5.69531 5.83655 5.74238 5.69534 5.82083L0.455 8.86462C0.172586 9.02152 0 9.31962 0 9.64911V15.7367C0 16.0662 0.172586 16.3643 0.455 16.5212L5.72672 19.565C6.00914 19.7219 6.35431 19.7219 6.63672 19.565L11.9084 16.5212C12.1909 16.3643 12.3634 16.0662 12.3634 15.7367V4.84807L12.4262 4.81669L16.0505 2.71428L19.7533 4.84807V9.11566L16.0505 11.2495L13.6186 9.85307V12.7086L15.5955 13.8539C15.8622 14.0108 16.2074 14.0108 16.4898 13.8539Z" fill="white"/>
</g>
<defs>
<clipPath id="clip0_178503_112117">
<rect width="91" height="19.6748" fill="white"/>
</clipPath>
</defs>
</svg>
